Ben.10.Omniverse.S01E03.WEB-DL.x264-h65.mp4

Enjoy and seed it, buddies!

"-h65", a new name for an old friend of yours!
Yeah, baby!
@helder1965

------------------------------------------

General
Format                                   : MPEG-4
Format profile                           : Base Media
Codec ID                                 : isom
File size                                : 194 MiB
Duration                                 : 22mn 20s
Overall bit rate mode                    : Variable
Overall bit rate                         : 1 214 Kbps


Video
ID                                       : 1
Format                                   : AVC
Format/Info                              : Advanced Video Codec
Format profile                           : High@L3.1
Format settings, CABAC                   : Yes
Format settings, ReFrames                : 2 frames
Codec ID                                 : avc1
Codec ID/Info                            : Advanced Video Coding
Duration                                 : 22mn 19s
Bit rate                                 : 1 018 Kbps
Maximum bit rate                         : 7 953 Kbps
Width                                    : 720 pixels
Height                                   : 404 pixels
Display aspect ratio                     : 16:9
Original display aspect ratio            : 16:9
Frame rate mode                          : Constant
Frame rate                               : 23.976 fps
Color space                              : YUV
Chroma subsampling                       : 4:2:0
Bit depth                                : 8 bits
Scan type                                : Progressive
Bits/(Pixel*Frame)                       : 0.146
Stream size                              : 163 MiB (84%)


Audio
ID                                       : 2
Format                                   : AAC
Format/Info                              : Advanced Audio Codec
Format profile                           : LC
Codec ID                                 : 40
Duration                                 : 22mn 20s
Bit rate mode                            : Variable
Bit rate                                 : 192 Kbps
Maximum bit rate                         : 200 Kbps
Channel(s)                               : 2 channels
Channel positions                        : Front: L R
Sampling rate                            : 48.0 KHz
Compression mode                         : Lossy
Stream size                              : 30.7 MiB (16%)